<?xml version="1.0" encoding="utf-8"?>
<!-- Generator: Adobe Illustrator 27.5.0, SVG Export Plug-In . SVG Version: 6.00 Build 0)  -->
<svg version="1.1" id="Layer_1" xmlns="http://www.w3.org/2000/svg" xmlns:xlink="http://www.w3.org/1999/xlink" x="0px" y="0px"
	 viewBox="0 0 377.199 403.239" style="enable-background:new 0 0 377.199 403.239;" xml:space="preserve">
<g>
	<path style="fill:#6EAC3A;" d="M370.858,72.882c-0.781-4.23-2.484-10.12-7.736-10.31c-3.191-0.115-6.006,1.763-8.651,3.31
		c-2.633,1.539-5.247,3.113-7.842,4.716c-10.428,6.442-20.553,13.363-30.49,20.535c-8.115,5.858-16.109,11.882-24.062,17.958
		c7.111-7.247,14.48-14.251,21.861-21.203c5.637-5.31,11.301-10.593,16.901-15.942c2.733-2.611,5.48-5.214,8.137-7.902
		c2.424-2.452,4.787-5.073,6.499-8.084c1.592-2.799,2.671-5.86,2.619-9.109c-0.044-2.76-0.936-5.505-2.524-7.758
		c-1.527-2.169-3.856-3.743-6.517-4.077c-3.472-0.436-6.814,1.099-9.545,3.117c-2.979,2.202-5.579,4.909-8.241,7.471
		c-2.818,2.712-5.622,5.438-8.409,8.181c-5.574,5.487-11.082,11.041-16.5,16.683c-8.978,9.348-17.656,18.967-26.002,28.878
		c4.892-8.262,10.256-16.247,15.762-24.108c4.007-5.721,8.112-11.373,12.167-17.059c2.058-2.885,4.113-5.773,6.126-8.69
		c1.943-2.815,3.982-5.608,5.686-8.578c1.637-2.853,2.862-5.907,2.901-9.235c0.033-2.796-0.887-5.754-3.001-7.679
		c-2.146-1.953-5.098-2.589-7.928-2.306c-3.137,0.313-5.922,1.795-8.324,3.774c-2.485,2.048-4.468,4.63-6.402,7.183
		c-2.149,2.837-4.266,5.699-6.35,8.584c-4.169,5.77-8.207,11.634-12.117,17.583c-3.909,5.948-7.665,11.996-11.3,18.115
		c-2.017,3.394-3.956,6.824-5.862,10.272c3.245-8.593,6.752-17.085,10.618-25.425c2.924-6.307,6.136-12.467,9.141-18.732
		c2.639-5.503,4.82-12.361,1.036-17.87c-1.506-2.192-3.713-3.913-6.355-4.449c-2.863-0.581-5.697,0.686-7.71,2.684
		c-2.215,2.199-3.684,5.116-5.237,7.787c-1.719,2.959-3.404,5.94-5.018,8.958c-6.424,12.017-12.206,24.354-17.435,36.937
		c-3.686,8.871-7.088,17.887-10.231,26.981c-0.013,0.019-0.03,0.037-0.043,0.056c-6.129,9.69-9.256,21.117-8.742,32.586
		c0.241,5.387,1.316,11.022,4.296,15.608c2.641,4.065,6.571,7.04,11.097,8.736c10.143,3.801,20.992,1.387,30.489-3.085
		c5.463-2.572,10.636-5.708,15.834-8.768c5.618-3.307,11.236-6.614,16.854-9.921c11.236-6.614,22.472-13.227,33.707-19.841
		c11.176-6.578,22.354-13.152,33.528-19.735c4.562-2.688,9.273-5.68,11.836-10.49C372.051,84.203,371.863,78.322,370.858,72.882z"/>
	<path style="fill:#6EAC3A;" d="M356.018,99.666c-0.02-0.752-0.014-1.506-0.061-2.257c-0.033-0.532-0.131-1.053-0.181-1.582
		c-0.194-2.056-0.286-4.13-0.726-6.154c-0.154-0.709-0.323-1.682-0.883-2.203c-1.025-0.953-2.755-0.16-3.818,0.313
		c-2.803,1.249-5.627,2.471-8.452,3.672c-2.779,1.182-5.72,2.305-8.781,2.328c-0.357,0.003-0.525-0.373-0.383-0.667
		c0.541-1.119,1.494-1.997,2.459-2.752c1.147-0.898,2.39-1.665,3.645-2.401c1.109-0.65,2.237-1.27,3.341-1.93
		c0.952-0.569,1.841-1.219,2.758-1.84c2.32-1.572,4.735-3.041,6.824-4.924c0.959-0.865,1.87-1.822,2.504-2.955
		c0.648-1.158,0.843-2.491,0.841-3.802c-0.004-2.106-0.454-4.277-1.217-6.279c-2.435,1.43-4.857,2.881-7.259,4.365
		c-10.428,6.442-20.553,13.363-30.49,20.535c-8.115,5.858-16.109,11.882-24.062,17.958c7.111-7.247,14.48-14.251,21.861-21.203
		c5.638-5.31,11.301-10.593,16.901-15.942c2.733-2.611,5.48-5.214,8.137-7.902c2.424-2.452,4.787-5.073,6.499-8.084
		c1.592-2.799,2.671-5.86,2.619-9.109c-0.022-1.388-0.26-2.773-0.692-4.092c-0.945,0.642-1.886,1.291-2.819,1.951
		c-2.938,2.075-5.824,4.221-8.706,6.373c-2.828,2.112-5.711,4.163-8.456,6.384c-5.211,4.217-10.11,8.953-15.978,12.274
		c-0.384,0.217-0.831-0.22-0.606-0.606c1.64-2.823,3.689-5.381,5.804-7.858c1.872-2.192,3.811-4.325,5.637-6.557
		c1.951-2.385,3.767-4.885,5.665-7.312c3.338-4.27,6.791-8.455,10.48-12.427c-3.244-0.19-6.35,1.257-8.915,3.153
		c-2.979,2.202-5.579,4.909-8.241,7.471c-2.818,2.712-5.622,5.438-8.409,8.181c-5.574,5.487-11.082,11.041-16.5,16.683
		c-8.978,9.348-17.656,18.967-26.002,28.878c4.892-8.262,10.256-16.247,15.762-24.108c4.007-5.721,8.112-11.373,12.167-17.059
		c2.058-2.885,4.113-5.773,6.126-8.69c1.943-2.815,3.982-5.608,5.686-8.578c1.636-2.853,2.862-5.908,2.901-9.234
		c0.032-2.797-0.887-5.754-3.001-7.679c-0.82-0.746-1.758-1.297-2.762-1.681c-1.031,1.256-2.061,2.512-3.1,3.761
		c-4.991,6-10.193,11.907-14.57,18.38c-4.038,5.971-7.599,12.321-12.441,17.705c-0.208,0.231-0.689,0.133-0.741-0.196
		c-0.408-2.606,0.737-5.319,1.795-7.638c1.186-2.601,2.626-5.08,4.079-7.539c0.621-1.05,1.25-2.096,1.855-3.156
		c0.783-1.374,1.465-2.802,2.201-4.201c2.668-5.07,5.597-9.992,8.609-14.864c-0.401,0.287-0.796,0.583-1.177,0.897
		c-2.485,2.048-4.468,4.63-6.402,7.183c-2.149,2.837-4.266,5.698-6.35,8.584c-4.168,5.77-8.207,11.634-12.117,17.583
		c-3.909,5.948-7.665,11.996-11.3,18.115c-2.017,3.394-3.956,6.824-5.862,10.272c3.245-8.593,6.752-17.085,10.618-25.425
		c2.924-6.307,6.136-12.467,9.141-18.732c2.336-4.87,4.304-10.799,2.105-15.917c-0.346,0.716-0.695,1.432-1.052,2.142
		c-3.043,6.059-6.437,11.965-8.857,18.314c-2.262,5.934-4.033,12.141-7.331,17.616c-0.217,0.36-0.852,0.229-0.826-0.224
		c0.2-3.452,0.799-6.868,1.56-10.238c1.392-6.166,3.243-12.217,4.637-18.384c0.733-3.245,1.425-6.5,2.226-9.729
		c0.383-1.543,0.742-3.091,1.114-4.636c0.109-0.454,0.226-0.907,0.349-1.358c-2.6-0.24-5.119,0.956-6.954,2.778
		c-2.215,2.199-3.684,5.116-5.237,7.787c-1.719,2.959-3.404,5.94-5.018,8.958c-6.424,12.017-12.206,24.354-17.434,36.937
		c-3.686,8.871-7.088,17.887-10.231,26.981c-0.013,0.019-0.03,0.037-0.043,0.056c-6.129,9.69-9.256,21.117-8.742,32.585
		c0.241,5.387,1.316,11.022,4.296,15.608c2.641,4.065,6.571,7.04,11.097,8.736c10.143,3.801,20.992,1.386,30.489-3.085
		c5.463-2.572,10.636-5.708,15.834-8.768l16.854-9.921c11.236-6.614,22.472-13.227,33.708-19.841
		c10.679-6.286,21.36-12.568,32.037-18.857C356.035,100.275,356.026,99.965,356.018,99.666z"/>
	<path style="fill:#9FCC3B;" d="M345.99,81.093c3.246-2.246,6.888-4.558,7.159-8.916c0.209-3.365-0.639-7.049-1.855-10.173
		c-1.19-3.058-3.324-5.876-6.432-7.156c-3.541-1.458-7.654-0.926-11.079,0.603c-3.745,1.673-6.874,4.326-10.03,6.891
		c-3.271,2.659-6.519,5.346-9.745,8.058c-6.402,5.385-12.716,10.874-18.938,16.467c-4.22,3.793-8.381,7.651-12.514,11.537
		c4.925-5.772,9.837-11.556,14.716-17.368c13.297-15.838,26.536-31.765,39.243-48.084c2.851-3.662,5.535-7.686,6.253-12.369
		c0.617-4.028-0.348-8.459-3.561-11.185c-2.798-2.374-6.474-3.201-10.073-3.006c-3.989,0.216-7.687,1.95-10.779,4.412
		c-3.481,2.772-6.229,6.281-8.785,9.896c-2.978,4.212-5.881,8.479-8.797,12.734c-5.883,8.581-11.721,17.192-17.488,25.851
		c-8.819,13.241-17.543,26.543-26.233,39.868c3.613-7.612,7.234-15.22,10.85-22.83c6.753-14.212,13.505-28.425,20.258-42.637
		c1.671-3.518,3.495-6.995,5.037-10.571c0.629-1.46,0.773-3.065-0.175-4.413c-0.835-1.188-2.211-1.835-3.603-2.12
		c-3.117-0.638-6.599,0.741-9.058,2.59c-2.836,2.132-4.818,4.989-6.422,8.117c-1.662,3.241-2.997,6.657-4.427,10.004
		c-1.544,3.611-3.088,7.222-4.631,10.833c-3.087,7.222-6.175,14.444-9.262,21.665c-4.701,10.995-9.371,22.003-14.02,33.019
		c2.599-11.413,5.245-22.813,8.16-34.157c2.105-8.194,4.316-16.362,6.686-24.484c1.205-4.131,2.525-8.23,3.863-12.321
		c1.289-3.941,2.908-7.906,3.635-12c0.605-3.402,0.328-7.066-1.649-9.994c-1.98-2.934-5.398-4.309-8.881-3.64
		c-8.062,1.548-11.25,9.602-13.803,16.435c-5.9,15.789-9.93,32.164-13.967,48.504c-2.081,8.425-4.143,16.854-6.206,25.284
		c-0.667,2.728-1.335,5.451-1.959,8.183c-0.286,0.405-0.448,0.893-0.419,1.393c0.008,0.137,0.008,0.274,0.015,0.411
		c-0.185,0.842-0.368,1.685-0.539,2.53c-0.428,2.11-0.88,4.217-1.285,6.332c-0.173,0.905,0.024,2.524,1.251,2.183
		c-0.853,6.88-2.231,13.731-1.934,20.685c0.354,8.295,3.206,17.119,10.349,21.987c8.195,5.584,18.85,3.542,27.679,0.813
		c10.271-3.174,20.361-7.131,30.293-11.231c10.103-4.171,20.055-8.706,29.831-13.594c9.903-4.951,19.708-10.177,29.095-16.058
		c2.199-1.378,4.483-2.722,6.501-4.361c2.099-1.705,3.376-3.875,3.677-6.581c0.306-2.762,0.286-5.589,0.416-8.364
		c0.109-2.339,0.54-4.905-0.137-7.192c-0.721-2.432-2.861-3.111-5.189-2.616c-2.616,0.556-5.191,1.364-7.693,2.303
		c-5.026,1.884-9.815,4.34-14.6,6.757c-10.869,5.492-21.635,11.179-32.348,16.964c3.324-2.159,6.646-4.322,9.96-6.497
		C317.048,100.868,331.58,91.066,345.99,81.093z"/>
	<path style="opacity:0.55;fill:#9FCC3B;" d="M345.99,81.093c3.246-2.246,6.888-4.558,7.159-8.916
		c0.209-3.365-0.639-7.049-1.855-10.173c-1.19-3.058-3.324-5.876-6.432-7.156c-3.541-1.458-7.654-0.926-11.079,0.604
		c-3.745,1.673-6.874,4.326-10.03,6.891c-3.27,2.659-6.519,5.345-9.745,8.058c-6.402,5.385-12.716,10.874-18.938,16.467
		c-4.22,3.793-8.381,7.651-12.514,11.537c4.925-5.772,9.837-11.556,14.716-17.368c13.297-15.838,26.536-31.765,39.243-48.084
		c2.851-3.662,5.535-7.687,6.253-12.369c0.617-4.028-0.348-8.46-3.561-11.185c-2.798-2.374-6.474-3.201-10.073-3.006
		c-3.989,0.216-7.687,1.95-10.779,4.412c-3.482,2.772-6.229,6.281-8.785,9.896c-2.978,4.212-5.88,8.479-8.797,12.734
		c-5.882,8.581-11.721,17.192-17.488,25.851c-8.819,13.241-17.543,26.543-26.233,39.868c3.613-7.612,7.234-15.22,10.85-22.83
		c6.753-14.212,13.505-28.425,20.258-42.637c1.671-3.518,3.495-6.995,5.037-10.571c0.629-1.46,0.773-3.065-0.175-4.414
		c-0.835-1.188-2.211-1.835-3.603-2.12c-3.117-0.638-6.599,0.741-9.058,2.59c-2.836,2.132-4.818,4.989-6.422,8.117
		c-1.662,3.241-2.996,6.657-4.427,10.004c-1.544,3.611-3.087,7.222-4.631,10.832c-3.087,7.222-6.175,14.443-9.262,21.665
		c-4.701,10.995-9.371,22.003-14.02,33.019c2.599-11.413,5.245-22.813,8.16-34.157c2.105-8.194,4.316-16.362,6.686-24.484
		c1.205-4.131,2.525-8.23,3.863-12.321c1.289-3.941,2.908-7.906,3.635-12c0.605-3.402,0.328-7.066-1.649-9.994
		c-1.98-2.934-5.398-4.309-8.881-3.64c-8.062,1.548-11.25,9.602-13.803,16.435c-5.9,15.789-9.93,32.164-13.967,48.505
		c-2.081,8.425-4.143,16.854-6.206,25.283c-0.667,2.728-1.335,5.451-1.959,8.183c-0.286,0.405-0.448,0.893-0.419,1.393
		c0.008,0.137,0.008,0.274,0.015,0.411c-0.185,0.842-0.368,1.685-0.539,2.53c-0.428,2.11-0.88,4.217-1.285,6.332
		c-0.173,0.905,0.024,2.524,1.251,2.183c-0.852,6.88-2.231,13.731-1.934,20.685c0.354,8.295,3.206,17.119,10.349,21.987
		c8.195,5.585,18.85,3.542,27.679,0.814c10.271-3.174,20.361-7.131,30.293-11.231c10.103-4.171,20.055-8.706,29.831-13.594
		c9.903-4.952,19.708-10.177,29.095-16.058c2.199-1.378,4.483-2.722,6.501-4.361c2.099-1.705,3.377-3.875,3.677-6.581
		c0.306-2.762,0.286-5.589,0.416-8.364c0.109-2.339,0.541-4.905-0.137-7.192c-0.721-2.432-2.861-3.111-5.189-2.616
		c-2.616,0.556-5.191,1.364-7.693,2.303c-5.026,1.884-9.815,4.34-14.6,6.757c-10.869,5.492-21.635,11.179-32.348,16.964
		c3.324-2.159,6.646-4.322,9.96-6.498C317.048,100.868,331.58,91.066,345.99,81.093z M237.482,81.083
		c-0.78,2.985-1.589,5.964-2.556,8.895c-0.899,2.725-1.908,5.467-3.345,7.961c-0.99,1.718-2.349,3.683-4.348,4.29
		c-1.074,0.326-2.403,0.262-3.324-0.428c-0.924-0.692-1.296-1.839-1.442-2.941c-0.326-2.471,0.271-4.961,0.729-7.375
		c0.984-5.192,1.987-10.364,3.218-15.505c1.25-5.221,2.639-10.409,4.098-15.575c1.314-4.652,2.766-9.271,4.131-13.91
		c0.828-2.815,1.68-5.633,2.587-8.434c0.831-3.504,1.793-6.973,3.03-10.359c1.288-3.527,2.869-6.996,5.044-10.071
		c1.211-1.712,4.273-6.252,6.683-3.598c1.055,1.162,1.603,2.935,1.806,4.466c0.21,1.582,0.072,3.189-0.161,4.761
		c-0.548,3.701-1.703,7.296-2.82,10.857c-0.488,1.556-0.989,3.11-1.413,4.685c-0.579,2.15-0.993,4.346-1.515,6.51
		c-1.226,5.078-2.619,10.114-4.121,15.117c-1.423,4.738-2.978,9.431-4.51,14.134C238.555,76.702,238.05,78.907,237.482,81.083z
		 M251.663,96.454c-1.475,3.838-3.134,8.112-6.448,10.755c-0.292,0.233-0.746,0.1-0.757-0.313
		c-0.134-5.413,1.759-10.76,3.804-15.692c2.001-4.828,4.368-9.489,6.606-14.208c2.388-5.037,4.371-10.243,6.412-15.427
		c3.473-8.821,6.967-17.659,11.087-26.198c0.467-1.415,0.962-2.821,1.513-4.205c1.066-2.679,2.254-5.475,4.106-7.718
		c0.636-0.77,1.44-1.551,2.431-1.82c0.889-0.242,1.867,0.008,2.398,0.793c0.604,0.894,0.559,2.134,0.444,3.158
		c-0.17,1.513-0.568,2.995-1.021,4.445c-0.838,2.683-1.959,5.252-2.924,7.887c-1.74,4.752-3.925,9.37-6.134,13.92
		c-2.545,5.243-5.262,10.4-8.035,15.526c-2.715,5.019-5.41,10.035-7.782,15.228C255.287,87.135,253.457,91.786,251.663,96.454z
		 M261.082,108.299c-1.53,1.39-3.339,2.74-5.427,3.09c-0.303,0.051-0.531-0.12-0.561-0.427c-0.062-0.641-0.054-1.284,0.019-1.924
		c0.337-2.964,1.735-5.735,3.225-8.274c1.513-2.576,3.272-4.991,4.861-7.518c4.283-6.812,9.028-13.342,13.602-19.959
		c4.467-6.461,8.744-13.05,13.133-19.564c4.369-6.484,8.817-12.917,13.487-19.189c1.551-2.083,3.138-4.139,4.743-6.18
		c1.087-2,2.208-3.982,3.45-5.895c2.193-3.378,4.797-6.961,8.359-9.004c1.473-0.845,3.167-1.376,4.879-1.224
		c2.074,0.185,4.2,1.261,5.473,2.925c2.689,3.513,0.768,8.491-1.076,11.92c-1.41,2.622-3.13,5.101-4.843,7.531
		c-1.921,2.727-3.948,5.378-6.043,7.973c-4.295,5.318-8.882,10.391-13.512,15.416c-4.618,5.01-9.242,10.013-13.792,15.084
		c-4.851,5.406-9.427,11.05-14.173,16.548c-2.003,2.321-4.156,4.53-6.084,6.913c-1.571,1.943-3.026,3.977-4.561,5.949
		C264.654,104.532,263,106.556,261.082,108.299z M298.862,117.343c4.287-2.164,8.459-4.54,12.656-6.873
		c5.679-3.158,11.377-6.297,17.171-9.244c1.644-1.36,3.32-2.681,5.088-3.878c2.596-1.758,5.621-3.573,8.828-3.787
		c1.266-0.084,2.576,0.168,3.636,0.892c1.229,0.839,2.234,2.236,2.126,3.782c-0.104,1.493-1.045,2.783-2.043,3.832
		c-1.175,1.235-2.562,2.264-3.959,3.234c-3.762,2.611-7.707,4.957-11.666,7.255c-4.863,2.822-9.803,5.507-14.777,8.127
		c-3.667,1.931-7.374,3.788-11.023,5.754c-3.041,1.638-6.095,3.258-9.26,4.647c-3.176,1.394-6.499,2.644-9.958,3.083
		c-2.78,0.353-5.8,0.068-7.932-1.931c-0.135-0.127-0.177-0.381-0.069-0.537c2.464-3.579,6.246-6.142,9.914-8.351
		C291.241,121.148,295.063,119.26,298.862,117.343z M286.592,108.721c-1.622,1.115-3.178,2.317-4.774,3.469
		c-1.807,1.304-3.672,2.576-5.702,3.51c-1.671,0.769-3.517,1.353-5.368,1.006c-0.234-0.044-0.371-0.329-0.31-0.545
		c0.648-2.262,1.965-4.26,3.45-6.059c1.712-2.075,3.694-3.918,5.734-5.665c3.544-3.037,7.379-5.721,10.894-8.79
		c4.184-3.654,8.231-7.436,12.222-11.3c5.755-5.573,11.537-11.235,17.891-16.137c2.275-2.461,4.683-4.787,7.355-6.807
		c2.347-1.774,5.249-3.622,8.307-3.58c1.517,0.021,3.306,0.478,4.255,1.744c0.971,1.295,0.775,3.052,0.304,4.502
		c-0.56,1.721-1.52,3.272-2.585,4.722c-1.401,1.909-2.987,3.676-4.669,5.34c-3.637,3.597-7.698,6.746-11.811,9.775
		c-9.095,6.699-18.307,13.236-27.626,19.617C291.634,105.252,289.114,106.988,286.592,108.721z"/>
	<path style="fill:#F89847;" d="M288.397,161.918c-0.092-0.33-0.188-0.66-0.289-0.989c-3.066-9.994-9.985-18.335-17.405-25.699
		c-21.994-21.827-56.518-41.828-88.821-35.669c-30.301,5.777-52.655,32.343-71.763,54.418
		c-23.735,27.422-44.554,57.395-61.647,89.392c-13.14,24.596-24.071,50.366-32.715,76.879c-4.958,15.207-11.168,32.644-9.941,48.839
		c0.746,9.841,5.437,19.954,14.158,24.574c15.435,8.177,38.202,0.184,53.876-4.366c19.383-5.627,180.475-101.001,211.559-191.75
		C289.307,186.163,291.69,173.744,288.397,161.918z"/>
	<path style="opacity:0.5;fill:#A7672E;" d="M21.643,343.158c2.004,0.955,3.918,2.121,5.799,3.297
		c7.347,4.599,14.212,10.143,22.185,13.66c-1.186-3.795-3.486-7.146-6.177-10.044c-6.093-6.562-14.004-11.326-21.784-15.611
		c-2.967-1.634-5.985-3.174-9.008-4.705c-0.896,2.8-1.776,5.644-2.593,8.519c1.765,0.647,3.519,1.326,5.253,2.052
		C17.449,341.218,19.557,342.164,21.643,343.158z"/>
	<path style="opacity:0.5;fill:#A7672E;" d="M93.265,360.376c-5.929-3.232-12.245-5.852-18.809-7.48
		c1.979,2.406,4.162,4.636,6.479,6.719c4.734,4.254,9.928,7.948,14.913,11.892c1.682,1.331,3.335,2.701,4.942,4.121
		c2.488-1.444,5.101-2.991,7.823-4.633C103.926,366.889,98.73,363.354,93.265,360.376z"/>
	<path style="opacity:0.5;fill:#A7672E;" d="M56.855,307.256c-1.95-2.837-4.493-5.238-7.285-7.238
		c-6.062-4.342-13.232-7.066-20.452-8.764c-0.875-0.206-1.757-0.397-2.644-0.575c-0.867,2.169-1.713,4.346-2.549,6.527
		c0.158,0.05,0.318,0.096,0.476,0.147C35.169,300.79,45.791,304.847,56.855,307.256z"/>
	<path style="opacity:0.5;fill:#A7672E;" d="M78.055,250.178c2.568,0.686,5.244,1.221,7.912,1.091
		c-2.592-2.359-5.488-4.364-8.559-6.05c-6.381-3.503-13.448-5.76-20.613-6.962c-1.71-0.287-3.439-0.515-5.176-0.675
		c-0.932,1.688-1.851,3.383-2.763,5.083c6.701,1.323,13.506,2.418,20.001,4.562C71.914,248.237,74.942,249.346,78.055,250.178z"/>
	<path style="opacity:0.5;fill:#A7672E;" d="M81.244,274.92c0.129,2.383,1.369,4.584,2.828,6.415
		c3.592,4.508,8.68,7.829,13.685,10.564c2.501,1.367,5.081,2.601,7.732,3.648c1.794,0.709,3.636,1.348,5.521,1.777
		c-0.679-2.279-1.78-4.398-3.16-6.338c-2.878-4.044-6.799-7.279-10.797-10.162c-2.781-2.005-5.669-3.847-8.538-5.72
		C86.1,274.578,83.623,274.409,81.244,274.92z"/>
	<path style="opacity:0.5;fill:#A7672E;" d="M171.137,311.412c-4.806-2.586-9.958-4.645-15.31-5.773
		c1.064,2.133,2.329,4.16,3.721,6.095c3.969,5.517,8.783,10.363,13.182,15.535c3.355-2.561,6.721-5.177,10.085-7.847
		C179.251,316.313,175.293,313.648,171.137,311.412z"/>
	<path style="opacity:0.5;fill:#A7672E;" d="M102.21,196.335c8.778,4.549,16.768,10.835,26.174,14.096
		c-0.094-0.23-0.18-0.462-0.28-0.689c-1.863-4.208-4.66-7.935-7.87-11.208c-3.491-3.56-7.468-6.616-11.641-9.332
		c-4.387-2.856-9.007-5.346-13.736-7.585c-1.728-0.819-3.477-1.593-5.234-2.347c-2.396,3.16-4.757,6.346-7.077,9.563
		c1.544,0.496,3.084,1.001,4.619,1.523C92.255,192.089,97.428,193.856,102.21,196.335z"/>
	<path style="opacity:0.5;fill:#A7672E;" d="M162.018,185.261c-3.134-1.55-6.339-2.945-9.576-4.262
		c-0.528,0.023-1.056,0.062-1.584,0.122c-0.112,2.27,1.253,4.455,2.588,6.175c1.885,2.428,4.218,4.514,6.637,6.395
		c2.682,2.085,5.556,3.933,8.545,5.546c2.752,1.486,5.627,2.796,8.63,3.69c1.997,0.594,4.25,1.125,6.357,0.801
		c-1.039-2.844-2.917-5.313-5.043-7.439C173.872,191.592,167.932,188.185,162.018,185.261z"/>
	<path style="opacity:0.5;fill:#A7672E;" d="M249.351,185.781c-5.643-3.643-11.515-7.073-17.792-9.511
		c-5.404-2.098-11.541-3.679-17.315-2.281c-0.002,0.189,0.006,0.419,0.023,0.539c0.243,1.699,1.426,3.246,2.488,4.527
		c1.658,2,3.58,3.781,5.541,5.478c4.797,4.152,9.984,7.849,15.196,11.456c4.35,3.01,8.797,5.885,13.113,8.944
		c2.137,1.514,4.107,3.231,6.099,4.929c3.85,3.282,7.637,6.64,11.295,10.135c1.556,1.486,3.086,3.005,4.594,4.548
		c3.008-5.036,5.705-10.086,8.031-15.135c-4.875-4.875-10.314-9.155-15.924-13.148C259.659,192.674,254.55,189.137,249.351,185.781z
		"/>
	<path style="opacity:0.5;fill:#A7672E;" d="M140.094,133.225c2.224,0.801,4.438,1.633,6.654,2.455
		c1.926,0.714,3.882,1.36,5.785,2.133c3.988,1.62,7.822,3.595,11.847,5.127c3.547,1.35,7.543,2.598,11.38,1.958
		c-0.672-3.373-2.55-6.319-4.92-8.777c-2.534-2.629-5.547-4.76-8.663-6.641c-3.38-2.041-6.926-3.796-10.515-5.435
		c-3.028-1.383-6.097-2.675-9.162-3.972c-3.828,3.252-7.51,6.72-11.062,10.306C134.355,131.227,137.238,132.196,140.094,133.225z"/>
	<path style="opacity:0.5;fill:#A7672E;" d="M222.64,252.496c-2.258-1.037-4.544-2.011-6.797-3.06
		c-1.894-0.881-3.796-1.744-5.714-2.57c-4.67-2.011-9.46-3.888-14.414-5.074c-2.102-0.503-4.271-0.902-6.442-0.852
		c-1.398,0.032-2.937,0.268-4.053,1.173c2.665,4.163,6.497,7.455,10.503,10.285c3.874,2.737,7.991,5.104,12.085,7.489
		c4.039,2.352,7.972,4.821,11.831,7.458c4.051,2.769,7.934,5.756,11.744,8.837c3.984-4.05,7.848-8.153,11.577-12.296
		c-0.67-0.471-1.346-0.934-2.027-1.387C235.138,258.647,228.958,255.398,222.64,252.496z"/>
	<path style="opacity:0.5;fill:#F89847;" d="M288.397,161.918c-0.092-0.33-0.188-0.66-0.289-0.989
		c-3.066-9.994-9.985-18.335-17.405-25.699c-21.994-21.827-56.518-41.828-88.821-35.669c-30.301,5.777-52.655,32.343-71.763,54.418
		c-23.735,27.422-44.554,57.396-61.647,89.392c-13.14,24.596-24.071,50.366-32.715,76.879c-4.958,15.207-11.168,32.644-9.941,48.839
		c0.746,9.841,5.437,19.954,14.158,24.574c15.435,8.177,38.202,0.184,53.876-4.366c19.383-5.627,180.475-101.001,211.559-191.75
		C289.307,186.163,291.69,173.744,288.397,161.918z M213.737,174.815c-5.914,11.946-13.192,23.216-20.842,34.112
		c-9.192,13.093-19.055,25.72-29.575,37.772c-10.74,12.305-22.174,24.018-34.343,34.916c-12.015,10.759-24.756,20.738-38.267,29.555
		c-6.391,4.17-12.926,8.378-19.92,11.471c-5.062,2.239-10.498,4.058-16.07,4.305c-3.859,0.171-7.923-0.509-11.083-2.866
		c-3.096-2.309-4.808-5.883-5.445-9.627c-0.9-5.292-0.036-10.794,1.321-15.93c2.043-7.733,4.683-15.361,7.52-22.835
		c5.895-15.533,13.169-30.523,21.386-44.956c8.263-14.513,17.479-28.473,27.337-41.949c1.228-1.679,2.48-3.339,3.728-5.003
		c1.884-2.946,3.794-5.874,5.737-8.779c8.053-12.041,16.501-23.888,26.182-34.688c9.792-10.924,21.01-20.883,34.152-27.586
		c11.777-6.007,25.893-9.837,38.826-5.186c5.921,2.129,10.945,6.098,14.349,11.397c3.342,5.203,5.004,11.293,5.295,17.44
		C224.658,149.765,219.578,163.016,213.737,174.815z"/>
	<path style="opacity:0.5;fill:#F89847;" d="M288.397,161.918c-0.092-0.33-0.188-0.66-0.289-0.989
		c-3.066-9.994-9.985-18.335-17.405-25.699c-15.941-15.82-38.464-30.671-61.953-35.308c14.777,5.731,28.688,14.109,40.251,24.9
		c13.012,12.143,23.112,27.991,25.003,45.987c2.137,20.347-7.366,39.237-19.159,55.159c-12.428,16.779-27.756,30.872-42.52,45.515
		c-17.729,17.582-36.372,34.199-56.135,49.469c-19.574,15.124-40.17,29.043-61.771,41.116c-10.376,5.799-21.22,11.039-32.807,13.909
		c-5.724,1.418-11.605,2.238-17.506,2.287c-3.676,0.031-7.361-0.164-10.927-1.118c-5.328-1.425-10.01-4.481-13.375-8.858
		c-3.524-4.584-5.507-10.18-6.644-15.799c-1.306-6.451-1.664-13.071-1.458-19.697c-3.677,11.853-6.787,24.408-5.885,36.297
		c0.746,9.841,5.437,19.954,14.158,24.574c15.435,8.177,38.202,0.184,53.876-4.366c19.383-5.627,180.475-101.001,211.559-191.75
		C289.307,186.163,291.69,173.744,288.397,161.918z"/>
	<path style="opacity:0.43;fill:#F89847;" d="M165.98,124.783c-4.306-0.514-8.616,1.171-12.406,3.265
		c-0.346,0.251-0.695,0.497-1.037,0.754c-5.903,4.442-11.179,9.698-16.067,15.221c-5.224,5.903-10.019,12.176-14.558,18.617
		c-4.437,6.295-8.628,12.761-12.684,19.307c-3.076,4.965-6.001,10.023-9.08,14.985c-1.695,2.731-3.293,5.522-4.852,8.332
		c-2.176,3.923-4.258,7.9-6.206,11.941c-2.007,4.163-3.894,8.4-5.434,12.761c-1.193,3.38-2.356,6.986-2.441,10.601
		c-0.027,1.16,0.069,2.447,0.565,3.465c0.436,0.895,1.127,1.507,2.067,1.785c1.294,0.382,2.733,0.161,4.03-0.167
		c2.199-0.556,4.287-1.52,6.293-2.563c6.534-3.399,12.631-7.629,18.321-12.292c6.105-5.003,11.771-10.531,17.07-16.378
		c5.474-6.041,10.559-12.43,15.292-19.067c4.677-6.557,9.015-13.356,13.003-20.354c3.781-6.634,7.252-13.45,10.329-20.439
		c1.311-2.977,2.577-5.983,3.683-9.042c1.098-3.035,2.062-6.191,2.368-9.417c0.268-2.827,0.047-6.037-1.965-8.237
		C170.69,126.134,168.286,125.058,165.98,124.783z"/>
	<path style="opacity:0.43;fill:#F89847;" d="M68.995,263.912c-2.281-1.588-5.132-0.321-7.193,1.026
		c-1.396,0.913-2.685,1.995-3.888,3.17c-0.51,0.861-0.998,1.733-1.454,2.618c-2.084,4.047-3.607,8.398-4.423,12.881
		c-0.338,1.857-0.564,3.842-0.234,5.718c0.189,1.078,0.584,2.283,1.542,2.919c0.887,0.589,1.992,0.488,2.961,0.175
		c1.559-0.504,2.941-1.539,4.153-2.613c1.535-1.359,3.059-2.933,4.175-4.658c0.738-1.14,1.432-2.309,2.091-3.497
		c1.726-3.113,3.303-6.416,4.105-9.901C71.47,268.969,71.591,265.719,68.995,263.912z"/>
</g>
</svg>
