<?xml version="1.0" encoding="utf-8"?>
<!-- Generator: Adobe Illustrator 27.5.0, SVG Export Plug-In . SVG Version: 6.00 Build 0)  -->
<svg version="1.1" id="Layer_1" xmlns="http://www.w3.org/2000/svg" xmlns:xlink="http://www.w3.org/1999/xlink" x="0px" y="0px"
	 viewBox="0 0 330.833 366.168" style="enable-background:new 0 0 330.833 366.168;" xml:space="preserve">
<g>
	<path style="fill:#E82A23;" d="M324.888,189.585c-2.431-18.084-9.427-35.161-21.642-49.196
		c-11.173-12.838-26.883-20.363-42.678-25.874c-53.131-18.536-112.962-22.695-167.521-7.836
		c-23.009,6.267-49.315,15.159-65.459,33.709c-12.215,14.035-19.212,31.113-21.642,49.196c-0.683,5.079-1.005,10.236-0.982,15.429
		c0.062,13.794,1.216,28.744,5.37,41.979c7.738,24.653,18.071,46.924,36.177,65.889c17.508,18.339,39.658,32.307,63.815,40.038
		c5.914,1.892,11.94,3.433,18.034,4.627c12.208,2.391,24.643,3.365,37.056,3.082c12.414,0.283,24.848-0.69,37.056-3.082
		c6.094-1.194,12.12-2.734,18.034-4.627c24.157-7.73,46.308-21.698,63.815-40.038c18.105-18.965,28.438-41.236,36.177-65.889
		c4.154-13.235,5.308-28.186,5.37-41.979C325.893,199.821,325.57,194.663,324.888,189.585z"/>
	<path style="opacity:0.52;fill:#9C1D16;" d="M76.269,133.844c7.813-0.731,15.589-2.628,23.042-5.048
		c6.882-2.235,13.581-4.985,20.423-7.335c6.909-2.374,13.981-4.276,21.272-4.967c0.533-0.05,0.552,0.712,0.118,0.87
		c-0.777,0.284-1.551,0.577-2.319,0.884c-6.277,2.502-12.243,5.786-17.776,9.659c-5.581,3.906-10.728,8.437-15.297,13.49
		c-4.535,5.016-8.495,10.561-11.652,16.545c-3.088,5.853-5.384,12.133-6.616,18.641c-1.201,6.343-1.332,12.872-0.345,19.253
		c2.041-1.441,3.655-3.482,5.094-5.49c1.765-2.465,3.329-5.066,4.937-7.634c1.357-2.168,2.748-4.292,4.384-6.261
		c2.11-2.539,4.291-5.019,6.538-7.437c4.489-4.828,9.249-9.405,14.247-13.703c10.285-8.844,21.661-16.283,33.478-22.907
		c0.221-0.124,0.469-0.041,0.606,0.159c3.428,5.021,5.99,10.587,7.853,16.366c3.491,10.827,4.625,22.336,4.579,33.668
		c-0.01,2.462-0.086,4.922-0.206,7.381c0.059-0.053,0.121-0.104,0.18-0.157c3.466-3.131,6.358-7.02,8.91-10.909
		c2.785-4.243,5.177-8.743,7.22-13.388c2.031-4.617,3.694-9.449,4.777-14.379c1.1-5.012,1.548-10.335,0.079-15.321
		c-0.109-0.37,0.323-0.699,0.651-0.501c2.954,1.786,5.573,4.037,8.341,6.085c1.366,1.011,2.766,1.983,4.283,2.755
		c1.551,0.789,3.158,1.464,4.805,2.027c5.685,1.945,11.711,2.517,17.689,2.541c3.09,0.012,6.182-0.1,9.271-0.15
		c3.178-0.051,6.354-0.165,9.531-0.263c6.223-0.193,12.465-0.326,18.674,0.222c6.108,0.539,12.13,1.783,17.863,3.965
		c-1.083-3.833-2.873-7.414-5.284-10.592c-4.542-5.986-10.883-10.332-17.313-14.065c-6.555-3.805-13.436-7.025-19.925-10.946
		c-0.344-0.208-0.244-0.682,0.106-0.81c2.954-1.083,5.906-2.17,8.877-3.205c1.357-0.473,2.72-0.936,4.087-1.385
		c-50.795-15.929-106.944-18.84-158.404-4.824c-15.372,4.187-32.21,9.55-46.511,18.177c2.331,2.188,4.771,4.235,7.593,5.767
		C60.807,134.249,68.86,134.538,76.269,133.844z"/>
	<path style="opacity:0.52;fill:#9C1D16;" d="M324.888,189.585c-2.431-18.084-9.427-35.161-21.642-49.196
		c-11.173-12.838-26.883-20.363-42.678-25.874c-53.131-18.536-112.962-22.695-167.521-7.836
		c-23.009,6.267-49.315,15.159-65.459,33.709c-12.215,14.035-19.212,31.113-21.642,49.196c-0.683,5.079-1.005,10.236-0.982,15.429
		c0.062,13.794,1.216,28.744,5.37,41.979c7.738,24.653,18.071,46.924,36.177,65.889c17.508,18.339,39.658,32.307,63.815,40.038
		c5.914,1.892,11.94,3.433,18.034,4.627c12.208,2.391,24.643,3.365,37.056,3.082c12.414,0.283,24.848-0.69,37.056-3.082
		c6.094-1.194,12.12-2.734,18.034-4.627c24.157-7.73,46.308-21.698,63.815-40.038c18.105-18.965,28.438-41.236,36.177-65.889
		c4.154-13.235,5.308-28.186,5.37-41.979C325.893,199.821,325.57,194.663,324.888,189.585z M244.297,241.595
		c-0.233,6.734-0.801,13.54-2.227,20.135c-1.602,7.407-4.201,14.665-7.691,21.443c-5.467,12.419-13.592,23.648-23.815,32.585
		c-10.928,9.553-24.081,16.347-38.11,20.014c-14.985,3.917-30.88,4.728-46.22,2.727c-15.184-1.98-29.976-6.756-43.43-14.073
		c-13.426-7.302-25.48-17.127-35.232-28.901c-10.1-12.196-17.13-26.26-22.537-41.073c-5.707-15.634-9.631-32.161-10.131-48.846
		c-0.327-10.91,0.957-21.957,4.495-32.24c0.906-3.962,2.278-7.763,4.094-11.296c0.954-2.252,2.333-4.33,3.915-6.246
		c3.013-3.996,6.732-7.445,11.165-10.092c1.773-1.236,3.611-2.375,5.512-3.369c6.009-3.144,12.887-4.993,19.544-6.113
		c7.315-1.23,14.803-1.47,22.176-0.647c16.003,1.786,31.027,9.055,47.307,8.955c8.172-0.05,16.211-1.658,24.244-2.977
		c6.726-1.104,13.477-1.882,20.303-1.733c10.998,0.24,22.059,2.779,31.381,8.8c4.68,3.023,8.818,6.836,12.286,11.192
		c4.182,5.253,7.173,11.15,9.867,17.272c5.926,13.465,10.221,27.634,12.089,42.248C244.225,226.728,244.553,234.17,244.297,241.595z
		"/>
	<path style="opacity:0.52;fill:#9C1D16;" d="M324.888,189.585c-2.431-18.084-9.427-35.161-21.642-49.196
		c-11.173-12.838-26.883-20.363-42.678-25.874c-2.159-0.754-4.334-1.474-6.514-2.18c0.364,0.183,0.732,0.357,1.095,0.543
		c10.752,5.493,21.089,12.031,29.862,20.384c8.357,7.956,15.022,17.499,19.609,28.087c5.699,13.151,8.493,27.618,9.395,41.873
		c1.066,16.853-0.942,33.813-5.51,50.054c-4.232,15.047-10.413,29.76-18.919,42.905c-7.726,11.94-17.354,22.625-28.426,31.55
		c-11.577,9.333-24.759,16.826-38.523,22.422c-8.914,3.624-18.12,6.46-27.483,8.639c2.446-0.365,4.887-0.769,7.318-1.245
		c6.094-1.194,12.12-2.734,18.034-4.627c24.157-7.73,46.308-21.698,63.815-40.038c18.105-18.965,28.438-41.236,36.177-65.889
		c4.154-13.235,5.308-28.186,5.37-41.979C325.893,199.821,325.57,194.663,324.888,189.585z"/>
	<path style="fill:#F26C49;" d="M108.636,207.703c-1.128-11.418-5.667-22.224-12.464-31.414
		c-6.768-9.151-15.831-16.669-26.022-21.73c-5.952-2.956-12.631-5.082-19.346-4.273c-5.643,0.68-10.801,3.505-14.913,7.351
		c-9.422,8.811-12.349,21.812-12.973,34.232c-0.086,1.705-0.127,3.407-0.136,5.109c-0.943,10.565,0.552,21.308,3.865,31.376
		c2.065,6.275,4.817,12.339,8.159,18.036c2.95,5.028,6.456,9.854,10.956,13.611c4.343,3.626,9.513,6.105,15.156,6.797
		c5.54,0.68,11.21-0.269,16.396-2.26c10.974-4.213,19.568-12.821,24.96-23.135C107.644,231.131,109.773,219.216,108.636,207.703z"/>
	<path style="fill:#F26C49;" d="M86.163,280.061c-3.577-2.651-8.638-5.001-13.127-3.545c-1.839,0.596-3.351,1.725-4.64,3.126
		c-0.86,0.266-1.677,0.675-2.384,1.221c-3.225,2.489-4.183,6.873-3.889,10.751c0.618,8.153,6.442,16.072,14.107,18.995
		c3.936,1.501,8.302,1.554,11.988-0.661c3.44-2.069,5.511-5.801,6.289-9.652C96.043,292.685,92.284,284.598,86.163,280.061z"/>
	<path style="fill:#4E9839;" d="M270.897,141.033c-14.781-12.296-32.147-21.272-50.704-26.284c-0.025-0.007-0.051-0.012-0.076-0.019
		c10.495-1.329,20.858-3.802,30.822-7.354c5.68-2.025,11.225-4.412,16.607-7.129c0.594-0.3,1.143-0.811,1.144-1.529
		c0.001-0.602-0.469-1.047-1.094-0.943c-20.947,3.48-41.682-6.659-62.621-2.251c-4.111,0.865-8.079,2.301-11.7,4.403
		c2.938-8.028,7.998-15.21,14.689-20.578c0.447-0.358,0.908-0.884,0.817-1.512c-0.078-0.531-0.56-0.865-1.091-0.779
		c-13.499,2.182-27.032,8.355-36.93,17.916c-1.537,1.485-3.046,3.026-4.443,4.656c-3.217-5.606-8.969-9.72-14.831-12.127
		c-7.995-3.283-16.703-3.591-25.206-2.722c-2.718,0.278-5.405,0.7-8.086,1.166c-2.838,0.2-5.672,0.678-8.379,1.51
		c-1.046,0.322-1.522,2.559-0.046,2.222c0.703-0.173,1.407-0.326,2.112-0.47c0.091-0.02,0.181-0.04,0.272-0.059
		c5.488-1.086,11.005-1.251,16.579-0.234c6.33,1.155,12.276,3.719,17.632,7.257c0.722,0.477,1.418,0.985,2.101,1.508
		c-0.823-0.326-1.665-0.616-2.532-0.864c-3.313-0.947-6.711-1.413-10.149-1.584c-7.41-0.369-14.903,0.394-22.211,1.588
		c-7.58,1.238-15.075,3.103-22.342,5.589c-7.204,2.465-14.071,5.652-20.9,8.998c-7.586,3.718-15.268,7.473-23.496,9.556
		c-0.876,0.222-2.168,1.672-0.942,2.36c11.057,6.201,24.261,6.031,36.284,3.148c13.641-3.27,26.325-9.641,40.023-12.693
		c6.7-1.493,13.596-2.168,20.393-1.238c-9.556,5.306-18.209,12.156-25.568,20.253c-8.22,9.044-14.86,19.52-19.437,30.857
		c-2.584,6.399-4.484,13.078-5.666,19.877c-0.257,1.477,1.717,1.178,2.242,0.293c12.284-20.706,31.422-35.934,51.085-49.254
		c5.191-3.516,10.463-6.91,15.742-10.292c7.352,12.851,11.277,27.556,11.345,42.365c0.02,4.288-0.318,8.581-0.921,12.825
		c-0.24,1.691,2.033,1.076,2.444-0.023c5.737-15.343,11.71-31.191,11.651-47.807c-0.01-2.923-0.23-5.836-0.671-8.718
		c6.944,7.031,15.499,12.449,24.829,15.723c5.425,1.903,11.11,3.098,16.848,3.476c6.684,0.44,13.376-0.185,20.046-0.557
		c7.492-0.419,15.167-0.506,22.387,1.832C270.039,143.741,272.1,142.033,270.897,141.033z"/>
	<path style="fill:#4E9839;" d="M171.733,176.957c0.311-1.453,0.565-2.918,0.761-4.38c0.645-4.815,0.746-9.704,0.465-14.551
		c-0.25-4.313-0.922-8.55-1.673-12.798c-0.729-4.12-1.57-8.266-3.123-12.167c-1.389-3.486-3.463-6.791-6.569-8.952
		c0.076,0.571,0.162,1.14,0.251,1.709c6.798,12.48,10.429,26.6,10.495,40.82C172.355,170.085,172.131,173.533,171.733,176.957z"/>
	<path style="fill:#4E9839;" d="M202.884,118.926c-3.677-2.564-8.252-3.538-12.66-4.217c0.367,0.406,0.778,0.775,1.181,1.11
		c2.236,1.863,4.983,3.196,7.701,4.194c1.304,0.479,2.643,0.885,4.009,1.145c0.759,0.145,1.568,0.263,2.356,0.224
		C204.742,120.435,203.866,119.61,202.884,118.926z"/>
	<path style="fill:#4E9839;" d="M105.995,150.908c3.592-5.166,7.624-10.022,11.95-14.588c4.311-4.55,8.919-8.817,13.742-12.819
		c4.221-3.503,8.615-6.796,13.142-9.894c-1.699,0.133-3.374,0.822-4.903,1.491c-1.707,0.746-3.413,1.485-5.105,2.252
		c-6.503,4.429-12.489,9.606-17.794,15.442c-8.22,9.044-14.86,19.52-19.437,30.857c-2.584,6.399-4.484,13.078-5.666,19.877
		c-0.029,0.167-0.026,0.307-0.004,0.43c0.92-5.842,2.666-11.528,5.01-16.953C99.378,161.34,102.475,155.97,105.995,150.908z"/>
	<path style="opacity:0.44;fill:#4E9839;" d="M270.897,141.033c-14.781-12.296-32.147-21.272-50.705-26.284
		c-0.025-0.007-0.051-0.012-0.076-0.019c10.495-1.329,20.858-3.802,30.822-7.354c5.68-2.025,11.225-4.412,16.607-7.129
		c0.594-0.3,1.143-0.811,1.144-1.529c0.001-0.602-0.469-1.047-1.094-0.943c-20.947,3.48-41.682-6.659-62.621-2.251
		c-4.111,0.865-8.079,2.301-11.7,4.403c2.938-8.028,7.998-15.21,14.689-20.578c0.447-0.358,0.908-0.884,0.816-1.512
		c-0.077-0.531-0.56-0.865-1.09-0.779c-13.499,2.182-27.032,8.355-36.93,17.916c-1.538,1.485-3.046,3.025-4.443,4.656
		c-3.217-5.606-8.969-9.719-14.831-12.127c-4.968-2.04-10.212-2.93-15.511-3.104c2.999,0.765,5.942,1.701,8.732,3.055
		c3.307,1.606,6.485,3.503,9.31,5.866c1.385,1.159,2.648,2.44,3.846,3.789c1,1.125,1.74,2.464,2.533,3.736
		c1.328,2.13,2.93,4.438,5.73,4.292c2.211-0.115,4.22-1.613,5.877-2.948c2.059-1.66,3.945-3.523,6.014-5.171
		c1.759-1.401,3.754-2.817,6.037-3.135c0.304-0.042,0.667,0.189,0.545,0.545c-0.849,2.474-2.618,4.478-4.234,6.482
		c-1.483,1.838-3.094,3.878-3.484,6.27c1.835-0.417,3.654-0.9,5.469-1.397c7.167-1.96,15.252-4.462,22.586-1.889
		c0.317,0.111,0.49,0.648,0.106,0.81c-4.295,1.815-9.191,2.074-13.326,4.269c2.183,0.994,4.371,1.98,6.537,3.012
		c4.109,1.959,8.157,4.103,11.823,6.819c3.734,2.767,6.977,6.105,9.515,10.006c0.233,0.358-0.152,0.702-0.5,0.651
		c-3.524-0.522-7.048-1.044-10.553-1.68c-3.138-0.57-6.262-1.232-9.342-2.065c-2.866-0.775-5.744-1.64-8.433-2.913
		c-4.83-2.287-9.058-5.687-13.975-7.798c-0.104,5.059,0.063,10.118,0.275,15.172c0.385,9.191,0.902,18.433-0.06,27.606
		c-0.744,7.094-2.466,14.019-5.432,20.448c-0.053,0.411-0.097,0.824-0.155,1.234c-0.24,1.691,2.033,1.076,2.444-0.023
		c5.738-15.343,11.71-31.191,11.651-47.807c-0.01-2.923-0.23-5.836-0.671-8.718c6.943,7.031,15.499,12.449,24.829,15.722
		c5.425,1.903,11.11,3.098,16.848,3.476c6.684,0.44,13.376-0.185,20.046-0.557c7.492-0.419,15.167-0.506,22.386,1.832
		C270.039,143.741,272.1,142.033,270.897,141.033z"/>
	<path style="opacity:0.44;fill:#4E9839;" d="M163.247,115.352c-0.481,0.377-0.96,0.755-1.446,1.127
		c-6.547,5.012-13.452,9.528-20.359,14.022c-6.389,4.157-12.853,8.251-18.944,12.84c-4.9,3.691-9.576,7.705-13.878,12.082
		c-4.533,4.612-8.732,9.68-11.804,15.396c-2.276,4.236-3.896,8.924-3.991,13.735c0.511-0.026,1.09-0.312,1.34-0.734
		c12.284-20.706,31.422-35.934,51.085-49.254c4.673-3.165,9.414-6.227,14.163-9.274C161.13,122.133,162.648,118.886,163.247,115.352
		z"/>
	<path style="opacity:0.44;fill:#4E9839;" d="M142.595,112.54c-0.754,0.419-1.492,0.864-2.235,1.301
		c2.609-1.256,5.262-2.427,7.93-3.561c-0.615-0.248-1.228-0.502-1.853-0.723c-7.415-2.615-15.359-3.235-23.159-2.604
		c-7.949,0.644-15.76,2.538-23.338,4.967c-3.466,1.111-6.902,2.325-10.286,3.667c-3.146,1.248-6.258,2.578-9.401,3.832
		c-6.368,2.54-12.996,4.91-19.889,5.389c-3.229,0.225-6.512-0.014-9.628-0.921c-1.758-0.512-3.43-1.24-5.006-2.14
		c-0.409,0.523-0.545,1.176,0.165,1.575c11.057,6.201,24.261,6.031,36.284,3.148c13.641-3.27,26.325-9.641,40.023-12.694
		C128.902,112.285,135.798,111.61,142.595,112.54z"/>
	<path style="fill:#4E9839;" d="M179.554,70.753c0.209-13.47-0.77-27.366-4.383-40.519c-1.966-7.158-5.84-24.663-15.687-24.741
		c-2.598-0.021-5.123,0.972-7.306,2.381c-7.957,5.136-12.32,13.069-7.802,22.001c5.06,10.001,11.208,18.771,14.882,29.471
		c2.84,8.268,5.068,16.845,5.735,25.585c0.333,4.364,0.228,8.724-0.386,13.058c-0.567,4.003-2.487,7.809-2.738,11.825
		c-0.074,1.19,0.069,2.458,0.778,3.417c1.068,1.444,3.208,1.784,4.883,1.136c5.351-2.071,6.586-11.162,7.797-15.923
		C177.598,89.516,179.407,79.985,179.554,70.753z"/>
	<path style="fill:#4E9839;" d="M164.994,84.931c0.333,4.364,0.228,8.724-0.386,13.058c-0.567,4.003-2.487,7.809-2.738,11.825
		c-0.038,0.609-0.017,1.238,0.105,1.836c0.104-0.22,0.21-0.439,0.311-0.66c1.517-3.326,2.638-6.834,3.513-10.38
		c0.826-3.348,1.434-6.758,1.763-10.191c0.392-4.095,0.154-8.216-0.316-12.296c-0.568-4.931-1.571-9.811-2.887-14.595
		c-0.651-2.367-1.382-4.712-2.184-7.032c-0.48-1.389-0.968-2.748-1.618-4.066c-1.423-2.883-3.073-5.649-4.524-8.517
		c-1.324-2.618-2.758-5.467-3.05-8.43c-0.12-1.222,0.102-2.353,0.744-3.409c0.753-1.238,1.863-2.218,2.97-3.131
		c2.038-1.681,4.472-3.35,5.452-5.868c-2.352,1.573-4.635,3.248-7.19,4.493c-2.346,1.143-5.262,2.17-7.827,1.12
		c-2.656-1.088-3.849-3.89-3.92-6.603c-0.051-1.968,0.332-3.938,0.939-5.831c-2.05,4.03-2.277,8.671,0.227,13.62
		c5.06,10.001,11.207,18.772,14.882,29.471C162.099,67.614,164.327,76.19,164.994,84.931z"/>
	<path style="opacity:0.44;fill:#4E9839;" d="M175.171,30.234c-1.966-7.157-5.84-24.662-15.687-24.741
		c-2.598-0.021-5.123,0.972-7.306,2.381c-1.845,1.191-3.493,2.534-4.886,4.003c-0.512,1.09-0.996,2.192-1.426,3.305
		c-1.17,3.031-2.229,6.349-2.182,9.634c0.016,1.114,0.172,2.32,0.817,3.26c0.587,0.856,1.553,1.238,2.565,1.273
		c1.754,0.061,3.52-0.62,5.085-1.34c1.332-0.613,2.515-1.436,3.787-2.151c1.083-0.609,2.221-0.848,3.419-0.421
		c2.19,0.78,3.708,2.531,4.802,4.515c1.197,2.171,1.984,4.566,2.63,6.95c0.584,2.155,1.032,4.342,1.467,6.532
		c0.537,2.702,1.111,5.388,1.535,8.112c0.917,5.903,1.428,11.869,1.531,17.841c0.106,6.13-0.219,12.269-1.042,18.345
		c-0.816,6.028-2.126,12.001-4.094,17.76c-0.935,2.736-2.02,5.424-3.272,8.031c1.128,1.185,3.066,1.444,4.616,0.844
		c5.351-2.071,6.587-11.162,7.797-15.923c2.27-8.928,4.079-18.459,4.226-27.691C179.763,57.283,178.784,43.388,175.171,30.234z"/>
</g>
</svg>
